Coordinates
version=1
nRows=10
nColumns=40
inDegrees=yes

Units are S.I. units (second, meters, Newtons, ...)
Angles are in degrees.

endheader
time	pelvis_tilt	pelvis_list	pelvis_rotation	pelvis_tx	pelvis_ty	pelvis_tz	hip_flexion_r	hip_adduction_r	hip_rotation_r	knee_angle_r	knee_angle_r_beta	ankle_angle_r	subtalar_angle_r	mtp_angle_r	hip_flexion_l	hip_adduction_l	hip_rotation_l	knee_angle_l	knee_angle_l_beta	ankle_angle_l	subtalar_angle_l	mtp_angle_l	lumbar_extension	lumbar_bending	lumbar_rotation	arm_flex_r	arm_add_r	arm_rot_r	elbow_flex_r	pro_sup_r	wrist_flex_r	wrist_dev_r	arm_flex_l	arm_add_l	arm_rot_l	elbow_flex_l	pro_sup_l	wrist_flex_l	wrist_dev_l
     15.78750000	     -1.57652043	     -4.10349201	      0.35331300	      1.04757313	      0.92521181	      0.49493313	     19.43448753	      1.45907698	     -9.77270832	     22.28026024	     22.28026024	      6.67164779	     -2.76334243	     -3.59019904	      7.95296558	    -10.40993546	     -5.86367990	     41.10914739	     41.10914739	     13.53724464	    -13.06994841	     -8.07231618	    -11.28270222	      5.62699999	     -0.58506985	      0.93246683	    -14.10750013	     -5.32216977	     40.29432438	     45.39094038	      0.00000000	      0.00000000	      7.66425837	     -9.88624121	    -10.49529603	     39.59748426	     46.63701595	      0.00000000	      0.00000000
     15.80171429	     -1.44324020	     -4.26701359	      0.83044431	      1.04741120	      0.92571728	      0.49774209	     18.72710783	      1.72829840	    -10.35221720	     21.99602144	     21.99602144	      6.95761084	     -2.54525166	     -4.10888529	     10.11952071	    -11.09750921	     -4.76050014	     45.25431106	     45.25431106	     11.06197995	    -14.43985961	     -9.44258986	    -11.41519816	      5.85853342	      0.01963593	      1.22465271	    -15.07555099	     -3.36879164	     42.95353454	     45.21958943	      0.00000000	      0.00000000	      7.66105284	     -9.49250331	    -10.93448430	     38.88313441	     46.67039965	      0.00000000	      0.00000000
     15.81592857	     -1.38885981	     -4.37784419	      1.31354287	      1.04694744	      0.92611768	      0.50044788	     18.17381872	      1.94369806	    -10.87019873	     21.81068808	     21.81068808	      7.33055298	     -2.39889165	     -4.27801933	     12.49757400	    -11.64471167	     -3.64504368	     49.37474774	     49.37474774	      9.19610977	    -15.29658373	     -8.88005306	    -11.46851885	      5.99424534	      0.21283200	      2.50074193	    -15.36966785	     -3.30971263	     43.71661062	     45.20185939	      0.00000000	      0.00000000	      7.28561781	     -9.35242501	    -10.93564100	     38.55989266	     46.66112528	      0.00000000	      0.00000000
     15.83014286	     -1.32178225	     -4.40791744	      1.76458795	      1.04623487	      0.92650837	      0.50294907	     17.64194164	      2.01215763	    -11.55373131	     21.68118291	     21.68118291	      7.65696198	     -1.85801626	     -4.72442777	     14.97117522	    -11.94508129	     -2.48696382	     53.47112865	     53.47112865	      8.91453793	    -15.34641313	     -4.38147134	    -11.60151136	      6.06525221	      0.43214979	      3.48957019	    -16.09173135	     -2.10361295	     45.67743126	     45.10944902	      0.00000000	      0.00000000	      6.96257400	     -9.15337779	    -11.35188985	     38.12137921	     46.68862919	      0.00000000	      0.00000000
     15.84435714	     -1.27803029	     -4.45222853	      2.19024601	      1.04538866	      0.92688733	      0.50540610	     17.14424681	      2.12532802	    -12.14598483	     21.54781840	     21.54781840	      8.02333904	     -1.45625866	     -4.90414599	     17.32853270	    -12.25176627	     -1.54917389	     56.89918550	     56.89918550	      8.14460006	    -15.66115984	     -1.55553408	    -11.69541090	      6.12944543	      0.53823996	      4.92755823	    -16.52609096	     -1.65644398	     46.79643380	     45.08247121	      0.00000000	      0.00000000	      6.49983010	     -9.07415049	    -11.61182536	     37.73070078	     46.69862885	      0.00000000	      0.00000000
     15.85857143	     -1.20333028	     -4.54438297	      2.55571368	      1.04446244	      0.92741883	      0.50789738	     16.55311326	      2.35910788	    -12.55902679	     21.25940068	     21.25940068	      8.31721794	     -1.23687672	     -4.95627112	     19.43974970	    -12.67963278	     -0.93374697	     59.53642091	     59.53642091	      6.84050377	    -16.16899337	     -0.93412951	    -11.83662489	      6.24438881	      1.10615614	      6.30108269	    -16.98614386	     -1.72708637	     47.35550795	     45.07694869	      0.00000000	      0.00000000	      6.21239430	     -8.88472630	    -11.62692441	     37.57553164	     46.69376132	      0.00000000	      0.00000000
     15.87278571	     -1.19961109	     -4.48387666	      2.95867415	      1.04332195	      0.92795636	      0.50997591	     16.07126898	      2.26727239	    -13.46441563	     21.08149319	     21.08149319	      8.72065364	     -0.06288442	     -5.12279909	     21.64981172	    -12.72533510	     -0.25065379	     61.82653689	     61.82653689	      7.19746999	    -16.35266445	      3.39857629	    -11.93783339	      6.20035145	      0.96647933	      7.89915443	    -17.39447469	     -1.06761604	     48.85104799	     45.02479493	      0.00000000	      0.00000000	      5.57437722	     -8.85834291	    -12.07336433	     37.19654276	     46.72489953	      0.00000000	      0.00000000
     15.88700000	     -1.23835479	     -4.52621260	      3.28931354	      1.04211988	      0.92853830	      0.51219826	     15.56965800	      2.43518545	    -13.92131207	     20.70352268	     20.70352268	      9.04844260	      0.38350211	     -4.90960624	     23.73576496	    -13.02316159	      0.07032683	     63.38513708	     63.38513708	      7.62899698	    -16.40867430	      6.62585680	    -11.97140926	      6.22278777	      1.39893581	      9.37256457	    -18.01568943	     -0.26482178	     49.53735196	     45.01254912	      0.00000000	      0.00000000	      5.19321761	     -8.64919612	    -12.73983078	     37.12637338	     46.77643395	      0.00000000	      0.00000000
     15.90121429	     -1.25634687	     -4.54811822	      3.62681367	      1.04090735	      0.92925236	      0.51425454	     15.00636658	      2.59217292	    -14.35676346	     20.23783336	     20.23783336	      9.26907100	      0.79080985	     -4.90105936	     25.51600015	    -13.28472973	      0.19865055	     63.98385018	     63.98385018	      7.21950510	    -17.01595613	      6.97898618	    -12.02338269	      6.26400716	      1.77077727	     10.91594736	    -18.37155174	     -0.38795270	     50.15479300	     45.00972106	      0.00000000	      0.00000000	      4.79533879	     -8.55090451	    -12.78680036	     36.89870442	     46.77229250	      0.00000000	      0.00000000
     15.91542857	     -1.24846341	     -4.48302361	      3.94704868	      1.03967119	      0.93015882	      0.51608488	     14.35604853	      2.60454950	    -15.02741376	     19.69649706	     19.69649706	      9.51825728	      1.73361269	     -4.90654199	     27.05264899	    -13.43538431	      0.11176862	     63.85739631	     63.85739631	      7.29090409	    -17.49619351	      7.81617941	    -12.13339188	      6.22584074	      1.87819653	     12.65906018	    -18.59797966	     -0.34850382	     50.92998190	     45.00095850	      0.00000000	      0.00000000	      4.26674674	     -8.53989925	    -12.97665205	     36.61192180	     46.78001821	      0.00000000	      0.00000000
